<svg width="91" height="26" viewBox="0 0 91 26" fill="none" xmlns="http://www.w3.org/2000/svg">
<path fill-rule="evenodd" clip-rule="evenodd" d="M49.0552 23.87C47.3856 22.8897 46.0658 21.5195 45.0957 19.7595L48.9194 10.7217C48.8329 11.3304 48.7896 11.9823 48.7896 12.6776C48.7896 14.4001 49.0512 15.8651 49.5744 17.0724C50.0976 18.2798 50.8381 19.2015 51.796 19.8374C52.7538 20.4652 53.8848 20.7791 55.1887 20.7791C56.372 20.7791 57.3822 20.5698 58.2193 20.1513C59.0645 19.7247 59.7084 19.125 60.1511 18.3523C60.5793 17.6181 60.8042 16.7569 60.8256 15.7685H55.5147V11.8324H65.862V14.9474C65.862 17.1207 65.4032 18.9882 64.4856 20.5497C63.568 22.1032 62.3043 23.3026 60.6944 24.1477C59.0846 24.9848 57.2413 25.4034 55.1646 25.4034C52.8464 25.4034 50.81 24.8923 49.0552 23.87ZM51.8081 5.56605C51.3933 5.84021 51.0185 6.16886 50.6835 6.552L53.4127 0.101241C53.9466 0.0337471 54.4944 0 55.0559 0C56.4565 0 57.7605 0.205256 58.9679 0.615767C60.1752 1.01823 61.2458 1.58973 62.1795 2.33026C63.1213 3.07079 63.89 3.95218 64.4856 4.97443C65.0813 5.98864 65.4636 7.10748 65.6326 8.33097H60.3201C60.1511 7.74337 59.9136 7.2242 59.6078 6.77344C59.3019 6.31463 58.9276 5.92827 58.4849 5.61435C58.0502 5.29238 57.5512 5.04688 56.9877 4.87784C56.4324 4.70881 55.8166 4.62429 55.1404 4.62429C53.8767 4.62429 52.7659 4.93821 51.8081 5.56605ZM43.0511 12.7017C43.0511 15.3982 42.54 17.6922 41.5178 19.5838C40.5035 21.4754 39.1191 22.9202 37.3643 23.9183C35.6177 24.9084 33.6536 25.4034 31.4723 25.4034C29.2749 25.4034 27.3028 24.9044 25.5561 23.9063C23.8094 22.9081 22.429 21.4633 21.4148 19.5717C20.4006 17.6802 19.8935 15.3902 19.8935 12.7017C19.8935 10.0052 20.4006 7.71118 21.4148 5.8196C22.429 3.92803 23.8094 2.48722 25.5561 1.49716C27.3028 0.499053 29.2749 0 31.4723 0C33.6536 0 35.6177 0.499053 37.3643 1.49716C39.1191 2.48722 40.5035 3.92803 41.5178 5.8196C42.54 7.71118 43.0511 10.0052 43.0511 12.7017ZM37.7507 12.7017C37.7507 10.955 37.4891 9.48201 36.9659 8.28267C36.4508 7.08333 35.7223 6.17377 34.7805 5.55398C33.8388 4.93419 32.736 4.62429 31.4723 4.62429C30.2086 4.62429 29.1058 4.93419 28.1641 5.55398C27.2223 6.17377 26.4898 7.08333 25.9666 8.28267C25.4515 9.48201 25.1939 10.955 25.1939 12.7017C25.1939 14.4484 25.4515 15.9214 25.9666 17.1207C26.4898 18.3201 27.2223 19.2296 28.1641 19.8494C29.1058 20.4692 30.2086 20.7791 31.4723 20.7791C32.736 20.7791 33.8388 20.4692 34.7805 19.8494C35.7223 19.2296 36.4508 18.3201 36.9659 17.1207C37.4891 15.9214 37.7507 14.4484 37.7507 12.7017ZM0 25.0653L10 0.338068H16.228L7.54321 20.755H16.8288V25.0653H0ZM82.5563 25.3072C82.0293 25.3714 81.4883 25.4034 80.9332 25.4034C78.7358 25.4034 76.7637 24.9044 75.017 23.9063C73.2703 22.9081 71.8899 21.4633 70.8757 19.5717C69.8615 17.6802 69.3544 15.3902 69.3544 12.7017C69.3544 10.0052 69.8615 7.71118 70.8757 5.8196C71.8899 3.92803 73.2703 2.48722 75.017 1.49716C76.7637 0.499053 78.7358 0 80.9332 0C83.1146 0 85.0786 0.499053 86.8253 1.49716C88.5229 2.45501 89.874 3.83478 90.8785 5.63645L87.0988 14.5703C87.174 13.9868 87.2116 13.3639 87.2116 12.7017C87.2116 10.955 86.95 9.48201 86.4268 8.28267C85.9117 7.08333 85.1832 6.17377 84.2415 5.55398C83.2997 4.93419 82.197 4.62429 80.9332 4.62429C79.6695 4.62429 78.5668 4.93419 77.625 5.55398C76.6832 6.17377 75.9508 7.08333 75.4276 8.28267C74.9124 9.48201 74.6548 10.955 74.6548 12.7017C74.6548 14.4484 74.9124 15.9214 75.4276 17.1207C75.9508 18.3201 76.6832 19.2296 77.625 19.8494C78.5668 20.4692 79.6695 20.7791 80.9332 20.7791C82.197 20.7791 83.2997 20.4692 84.2415 19.8494C84.5954 19.6165 84.9193 19.3426 85.213 19.0277L82.5563 25.3072Z" fill="black"/>
</svg>
