<svg width="152" height="152" viewBox="0 0 152 152" fill="none" xmlns="http://www.w3.org/2000/svg">
<path d="M112.366 55.2261C112.366 74.4718 96.7645 90.0735 77.5188 90.0735C58.2731 90.0735 42.6714 74.4718 42.6714 55.2261C42.6714 35.9804 49.0719 20.3785 77.5188 20.3787C105.966 20.3788 112.366 35.9804 112.366 55.2261Z" fill="url(#paint0_linear_706_27)"/>
<ellipse cx="77.521" cy="27.4905" rx="16.3569" ry="18.4905" fill="url(#paint1_linear_706_27)"/>
<path d="M77.1192 119.491C60.452 109.868 54.7414 88.5555 64.3642 71.8882C73.9871 55.221 95.2994 49.5103 111.967 59.1332C128.634 68.756 138.945 82.1 124.722 106.736C110.498 131.371 93.7865 129.113 77.1192 119.491Z" fill="url(#paint2_linear_706_27)"/>
<ellipse cx="118.562" cy="103.18" rx="16.3569" ry="18.4905" transform="rotate(120 118.562 103.18)" fill="url(#paint3_linear_706_27)"/>
<path d="M40.0335 59.8485C56.7007 50.2256 78.0131 55.9362 87.6359 72.6035C97.2588 89.2708 91.5481 110.583 74.8809 120.206C58.2136 129.829 41.5017 132.087 27.2784 107.451C13.0552 82.8151 23.3662 69.4713 40.0335 59.8485Z" fill="url(#paint4_linear_706_27)"/>
<ellipse cx="33.4368" cy="103.895" rx="16.3569" ry="18.4905" transform="rotate(-120 33.4368 103.895)" fill="url(#paint5_linear_706_27)"/>
<ellipse cx="77.1626" cy="76.917" rx="27.3801" ry="27.3801" fill="white"/>
<path d="M112.366 55.2261C112.366 74.4718 96.7645 90.0735 77.5188 90.0735C58.2731 90.0735 42.6714 74.4718 42.6714 55.2261C42.6714 35.9804 49.0719 20.3785 77.5188 20.3787C105.966 20.3788 112.366 35.9804 112.366 55.2261Z" fill="url(#paint6_linear_706_27)"/>
<ellipse cx="77.521" cy="27.4905" rx="16.3569" ry="18.4905" fill="url(#paint7_linear_706_27)"/>
<path d="M77.1189 119.49C60.4516 109.867 54.741 88.5547 64.3638 71.8875C73.9867 55.2202 95.299 49.5096 111.966 59.1324C128.634 68.7553 138.945 82.0993 124.721 106.735C110.498 131.371 93.7861 129.113 77.1189 119.49Z" fill="url(#paint8_linear_706_27)"/>
<ellipse cx="118.561" cy="103.18" rx="16.3569" ry="18.4905" transform="rotate(120 118.561 103.18)" fill="url(#paint9_linear_706_27)"/>
<path d="M40.0335 59.8485C56.7007 50.2256 78.0131 55.9362 87.6359 72.6035C97.2588 89.2708 91.5481 110.583 74.8809 120.206C58.2136 129.829 41.5017 132.087 27.2784 107.451C13.0552 82.8151 23.3662 69.4713 40.0335 59.8485Z" fill="url(#paint10_linear_706_27)"/>
<ellipse cx="33.4368" cy="103.895" rx="16.3569" ry="18.4905" transform="rotate(-120 33.4368 103.895)" fill="url(#paint11_linear_706_27)"/>
<ellipse cx="77.1626" cy="76.917" rx="27.3801" ry="27.3801" fill="white"/>
<path d="M66.6475 84.214L63.5863 71.9283V85.24C63.5863 85.9767 63.4213 86.5291 63.0913 86.8974C62.77 87.2657 62.3401 87.4499 61.8017 87.4499C61.2807 87.4499 60.8551 87.2701 60.5251 86.9106C60.1951 86.5423 60.0301 85.9854 60.0301 85.24V69.9815C60.0301 69.1396 60.2472 68.574 60.6815 68.2846C61.1157 67.9865 61.7019 67.8374 62.44 67.8374H63.6384C64.3592 67.8374 64.8803 67.9032 65.2016 68.0347C65.5316 68.1663 65.7748 68.403 65.9311 68.745C66.0874 69.087 66.2654 69.6439 66.4652 70.4156L69.2398 80.9782L72.0144 70.4156C72.2141 69.6439 72.3922 69.087 72.5485 68.745C72.7048 68.403 72.9436 68.1663 73.2649 68.0347C73.5949 67.9032 74.1203 67.8374 74.8411 67.8374H76.0395C76.7777 67.8374 77.3639 67.9865 77.7981 68.2846C78.2323 68.574 78.4494 69.1396 78.4494 69.9815V85.24C78.4494 85.9767 78.2844 86.5291 77.9544 86.8974C77.6331 87.2657 77.1989 87.4499 76.6518 87.4499C76.1394 87.4499 75.7182 87.2657 75.3882 86.8974C75.0582 86.5291 74.8932 85.9767 74.8932 85.24V71.9283L71.832 84.214C71.6323 85.012 71.4673 85.5996 71.337 85.9767C71.2154 86.345 70.9853 86.6826 70.6466 86.9895C70.3079 87.2964 69.839 87.4499 69.2398 87.4499C68.7882 87.4499 68.4061 87.349 68.0935 87.1474C67.7808 86.9544 67.5377 86.7045 67.364 86.3976C67.1903 86.0907 67.0513 85.753 66.9471 85.3847C66.8516 85.0076 66.7517 84.6174 66.6475 84.214Z" fill="#FF7F24"/>
<path d="M93.6302 71.0601H89.4097V85.069C89.4097 85.8758 89.2317 86.4765 88.8756 86.8711C88.5196 87.257 88.0593 87.4499 87.4948 87.4499C86.9217 87.4499 86.4527 87.2526 86.088 86.858C85.7319 86.4633 85.5539 85.867 85.5539 85.069V71.0601H81.3333C80.6733 71.0601 80.1827 70.9154 79.8614 70.626C79.54 70.3279 79.3794 69.9376 79.3794 69.4553C79.3794 68.9555 79.5444 68.5609 79.8744 68.2715C80.2131 67.9821 80.6994 67.8374 81.3333 67.8374H93.6302C94.2989 67.8374 94.7939 67.9865 95.1152 68.2846C95.4452 68.5828 95.6102 68.973 95.6102 69.4553C95.6102 69.9376 95.4452 70.3279 95.1152 70.626C94.7852 70.9154 94.2902 71.0601 93.6302 71.0601Z" fill="#FF7F24"/>
<defs>
<linearGradient id="paint0_linear_706_27" x1="77.5188" y1="20.3787" x2="77.5188" y2="90.0735" gradientUnits="userSpaceOnUse">
<stop stop-color="#00C11F" stop-opacity="0.2"/>
<stop offset="1" stop-color="#00C11F"/>
</linearGradient>
<linearGradient id="paint1_linear_706_27" x1="77.521" y1="9" x2="77.521" y2="45.9809" gradientUnits="userSpaceOnUse">
<stop stop-color="#00C11F" stop-opacity="0.5"/>
<stop offset="1" stop-color="#00C11F"/>
</linearGradient>
<linearGradient id="paint2_linear_706_27" x1="124.722" y1="106.736" x2="64.3642" y2="71.8882" gradientUnits="userSpaceOnUse">
<stop stop-color="#0056FF" stop-opacity="0.2"/>
<stop offset="1" stop-color="#0056FF"/>
</linearGradient>
<linearGradient id="paint3_linear_706_27" x1="118.562" y1="84.6899" x2="118.562" y2="121.671" gradientUnits="userSpaceOnUse">
<stop stop-color="#0056FF" stop-opacity="0.5"/>
<stop offset="1" stop-color="#0056FF"/>
</linearGradient>
<linearGradient id="paint4_linear_706_27" x1="27.2784" y1="107.451" x2="87.6359" y2="72.6035" gradientUnits="userSpaceOnUse">
<stop stop-color="#F4E951" stop-opacity="0.2"/>
<stop offset="1" stop-color="#F4E951"/>
</linearGradient>
<linearGradient id="paint5_linear_706_27" x1="33.4368" y1="85.4047" x2="33.4368" y2="122.386" gradientUnits="userSpaceOnUse">
<stop stop-color="#F4E951" stop-opacity="0.5"/>
<stop offset="1" stop-color="#F4E951"/>
</linearGradient>
<linearGradient id="paint6_linear_706_27" x1="77.5188" y1="20.3787" x2="77.5188" y2="90.0735" gradientUnits="userSpaceOnUse">
<stop stop-color="#00C11F" stop-opacity="0.2"/>
<stop offset="1" stop-color="#00C11F"/>
</linearGradient>
<linearGradient id="paint7_linear_706_27" x1="77.521" y1="9" x2="77.521" y2="45.9809" gradientUnits="userSpaceOnUse">
<stop stop-color="#00C11F" stop-opacity="0.5"/>
<stop offset="1" stop-color="#00C11F"/>
</linearGradient>
<linearGradient id="paint8_linear_706_27" x1="124.721" y1="106.735" x2="64.3638" y2="71.8875" gradientUnits="userSpaceOnUse">
<stop stop-color="#0056FF" stop-opacity="0.2"/>
<stop offset="1" stop-color="#0056FF"/>
</linearGradient>
<linearGradient id="paint9_linear_706_27" x1="118.561" y1="84.6891" x2="118.561" y2="121.67" gradientUnits="userSpaceOnUse">
<stop stop-color="#0056FF" stop-opacity="0.5"/>
<stop offset="1" stop-color="#0056FF"/>
</linearGradient>
<linearGradient id="paint10_linear_706_27" x1="27.2784" y1="107.451" x2="87.6359" y2="72.6035" gradientUnits="userSpaceOnUse">
<stop stop-color="#F4E951" stop-opacity="0.2"/>
<stop offset="1" stop-color="#F4E951"/>
</linearGradient>
<linearGradient id="paint11_linear_706_27" x1="33.4368" y1="85.4047" x2="33.4368" y2="122.386" gradientUnits="userSpaceOnUse">
<stop stop-color="#F4E951" stop-opacity="0.5"/>
<stop offset="1" stop-color="#F4E951"/>
</linearGradient>
</defs>
</svg>
